<svg width="100" height="100" fill="none" xmlns="http://www.w3.org/2000/svg"><circle cx="50" cy="50" r="50" fill="#D1A954"/><path d="M64.817 63.05l-8.715-8.715a11.814 11.814 0 002.648-7.46C58.75 40.327 53.423 35 46.875 35S35 40.327 35 46.875 40.327 58.75 46.875 58.75c2.825 0 5.419-.995 7.46-2.648l8.714 8.715c.245.244.64.244.884 0l.884-.884a.625.625 0 000-.884zm-17.942-6.8c-5.17 0-9.375-4.205-9.375-9.375s4.205-9.375 9.375-9.375 9.375 4.205 9.375 9.375-4.205 9.375-9.375 9.375z" fill="#fff"/></svg>