<svg width="58" height="67" fill="none" xmlns="http://www.w3.org/2000/svg"><path d="M48.753 33.765H33.258v10.38c.013 0 .024-.028.038-.028 3.65-3.65 9.571-3.65 13.225 0 3.65 3.623 3.65 9.535 0 13.185-.017.027-.033.027-.05.054-.018 0-.037.028-.054.055a18.675 18.675 0 01-13.16 5.394c-4.78 0-9.56-1.798-13.205-5.449-6.429-6.401-7.19-16.345-2.29-23.591.66-.98 1.422-1.907 2.29-2.779 3.645-3.65 8.425-5.448 13.206-5.448V.584C14.889.584 0 15.431 0 33.765c0 18.334 14.89 33.208 33.258 33.208 9.577 0 18.204-4.06 24.272-10.516V33.765h-8.777z" fill="#fff" fill-opacity=".5"/></svg>