<svg width="41" height="16" viewBox="0 0 41 16" fill="none" xmlns="http://www.w3.org/2000/svg">
<path d="M40.7071 8.70708C41.0976 8.31655 41.0976 7.68339 40.7071 7.29286L34.3431 0.928902C33.9526 0.538378 33.3195 0.538378 32.9289 0.928902C32.5384 1.31943 32.5384 1.95259 32.9289 2.34312L38.5858 7.99997L32.9289 13.6568C32.5384 14.0473 32.5384 14.6805 32.9289 15.071C33.3195 15.4616 33.9526 15.4616 34.3431 15.071L40.7071 8.70708ZM0 8.99997H40V6.99997L0 6.99997L0 8.99997Z" fill="#C4C4C4"/>
<path d="M40.7071 8.70708C41.0976 8.31655 41.0976 7.68339 40.7071 7.29286L34.3431 0.928902C33.9526 0.538378 33.3195 0.538378 32.9289 0.928902C32.5384 1.31943 32.5384 1.95259 32.9289 2.34312L38.5858 7.99997L32.9289 13.6568C32.5384 14.0473 32.5384 14.6805 32.9289 15.071C33.3195 15.4616 33.9526 15.4616 34.3431 15.071L40.7071 8.70708ZM0 8.99997H40V6.99997L0 6.99997L0 8.99997Z" fill="white"/>
</svg>
