<svg width="58" height="67" viewBox="0 0 58 67" fill="none" xmlns="http://www.w3.org/2000/svg">
<path d="M48.7527 33.765H33.2576V44.1441C33.2713 44.1441 33.2822 44.1169 33.2958 44.1169C36.9465 40.4665 42.8674 40.4665 46.5208 44.1169C50.1715 47.7401 50.1715 53.6515 46.5208 57.3019C46.5045 57.3292 46.4881 57.3292 46.4717 57.3564C46.4526 57.3564 46.4335 57.3837 46.4171 57.4109C42.7746 61.0068 38.0161 62.8048 33.2576 62.8048C28.4773 62.8048 23.697 61.0068 20.0517 57.3564C13.6234 50.9546 12.8621 41.0113 17.7625 33.765C18.4228 32.7843 19.184 31.8581 20.0517 30.9863C23.697 27.3359 28.4773 25.538 33.2576 25.538V0.584473C14.8894 0.584473 0 15.4312 0 33.765C0 52.0987 14.8894 66.9728 33.2576 66.9728C42.8346 66.9728 51.4621 62.9137 57.5303 56.4574V33.765H48.7527Z" fill="white" fill-opacity="0.5"/>
</svg>
